<svg width="54" height="50" viewBox="0 0 54 50" fill="none" xmlns="http://www.w3.org/2000/svg">
<path d="M33.266 1.87365L45.5366 23.1269C46.2057 24.2861 46.2057 25.7142 45.5366 26.8735L33.266 48.1267C32.5968 49.286 31.36 50 30.0215 50H37.2123C38.5508 50 39.7876 49.286 40.4568 48.1267L52.7274 26.8735C53.3965 25.7142 53.3965 24.2861 52.7274 23.1269L40.4568 1.87365C39.7876 0.714422 38.5506 0.000366211 37.2123 0.000366211H30.0215C31.36 0.000366211 32.5968 0.714422 33.266 1.87365Z" fill="#39435A"/>
<path d="M33.266 1.87365L33.8127 2.82065C34.742 2.83424 35.7073 2.91058 36.6924 3.0554C38.6527 3.34377 40.4599 3.86939 42.0038 4.55359L40.4565 1.87365C39.7876 0.714422 38.5508 0.000366211 37.2123 0.000366211H30.0215C31.36 0.000366211 32.5968 0.714422 33.266 1.87365Z" fill="#2C374C"/>
<path d="M19.4237 1.87365L31.6942 23.1269C32.3634 24.2861 32.3634 25.7142 31.6942 26.8735L19.4237 48.1267C18.7545 49.286 17.5177 50 16.1791 50H23.3699C24.7085 50 25.9453 49.286 26.6145 48.1267L38.885 26.8735C39.5542 25.7142 39.5542 24.2861 38.885 23.1269L26.6145 1.87365C25.9451 0.714422 24.7083 0.000366211 23.3698 0.000366211H16.1791C17.5175 0.000366211 18.7543 0.714422 19.4237 1.87365Z" fill="#39435A"/>
<path d="M19.9632 48.1264L7.69268 26.8731C7.0235 25.7139 7.0235 24.2858 7.69268 23.1265L19.9632 1.87328C20.6324 0.714055 21.8692 0 23.2077 0H16.017C14.6784 0 13.4416 0.714055 12.7724 1.87328L0.501886 23.1265C-0.167295 24.2858 -0.167295 25.7139 0.501886 26.8731L12.7724 48.1264C13.4416 49.2856 14.6784 49.9996 16.017 49.9996H23.2077C21.8692 49.9996 20.6324 49.2856 19.9632 48.1264Z" fill="#435F94"/>
<path d="M27.0524 48.1264L14.7819 26.8731C14.1127 25.7139 14.1127 24.2858 14.7819 23.1266L27.0524 1.87329C27.7216 0.714422 28.9584 0.000366211 30.297 0.000366211H23.1062C21.7676 0.000366211 20.5308 0.714422 19.8617 1.87365L7.59112 23.1269C6.92194 24.2861 6.92194 25.7142 7.59112 26.8735L19.8617 48.1267C20.5308 49.286 21.7676 50 23.1062 50H30.297C28.9584 49.9997 27.7216 49.2856 27.0524 48.1264Z" fill="#377DFF"/>
<path d="M34.2788 48.1264L22.0083 26.8731C21.3391 25.7139 21.3391 24.2858 22.0083 23.1266L34.2788 1.87329C34.948 0.714422 36.1848 0.000366211 37.5234 0.000366211H30.3326C28.994 0.000366211 27.7572 0.714422 27.088 1.87365L14.8175 23.1269C14.1483 24.2861 14.1483 25.7142 14.8175 26.8735L27.088 48.1267C27.7572 49.286 28.994 50 30.3326 50H37.5234C36.1848 49.9997 34.948 49.2856 34.2788 48.1264Z" fill="#37DBFF"/>
</svg>
